<svg xmlns="http://www.w3.org/2000/svg" width="1150" height="1150" preserveAspectRatio="xMidYMid meet" version="1.0" viewBox="0 0 1150 1150"><g fill="#000"><path d="M0 575 l0 -575 575 0 575 0 0 575 0 575 -575 0 -575 0 0 -575z m263.80 349.38 c4.38 -2.25 12.35 -10.22 14.82 -14.82 0.79 -1.46 2.02 -5.17 2.70 -8.31 3.37 -14.82 -7.52 -30.88 -24.48 -35.94 -5.17 -1.57 -6.40 -1.57 -11.79 0.11 -28.64 8.31 -34.25 42.90 -9.43 57.39 10.33 6.06 18.42 6.51 28.19 1.57z m396.55 -0.11 c10.11 -5.17 18.19 -17.74 18.19 -28.19 0 -6.96 -5.39 -18.53 -10.67 -23.02 -5.62 -4.72 -14.94 -8.54 -20.89 -8.54 -11.01 0 -23.36 8.76 -28.53 20.33 -5.95 13.03 0.11 30.10 13.59 37.96 10.33 6.06 18.42 6.51 28.30 1.46z m-536.82 1.24 c3.14 -1.24 7.52 -3.48 9.66 -5.17 l3.82 -2.92 0 -11.12 0 -11.01 -6.96 -0.79 c-3.93 -0.45 -8.87 -0.56 -11.01 -0.34 -3.37 0.22 -3.93 0.79 -4.27 3.48 l-0.34 3.03 7.30 0 7.41 0 0 8.87 0 8.87 -3.59 1.46 c-5.39 2.25 -20.66 1.91 -25.94 -0.56 -8.98 -4.38 -12.58 -12.47 -11.79 -26.17 0.67 -9.32 3.93 -15.72 10.22 -19.43 4.72 -2.92 23.02 -3.26 28.19 -0.56 2.58 1.35 3.48 1.46 4.16 0.34 1.24 -2.02 -0.56 -3.71 -7.08 -6.51 -10.44 -4.49 -20.89 -2.58 -31.22 5.62 -5.95 4.72 -11.46 16.06 -11.46 23.36 0 9.21 5.73 19.99 13.59 25.38 9.32 6.51 19.32 7.97 29.31 4.16z m284.13 -1.24 l0 -3.37 -16.85 0 -16.85 0 0 -28.08 0 -28.08 -3.93 0 -3.93 0 0 31.45 0 31.45 20.78 0 20.78 0 0 -3.37z m92.09 -10.67 l0 -13.93 14.94 -0.34 14.82 -0.34 0.34 -3.59 0.34 -3.71 -15.16 0 -15.27 0 0 -10.11 0 -10.11 17.41 0 17.41 0 0 -3.37 0 -3.37 -21 0.22 -21.11 0.34 -0.34 31.22 -0.22 31.11 3.93 0 3.93 0 0 -14.04z m270.65 -6.74 l0 -20.78 3.82 0 c3.48 0 4.60 1.12 19.88 20.78 10 12.80 16.96 20.78 18.19 20.78 1.80 0 1.91 -2.25 1.91 -31.45 l0 -31.45 -3.93 0 -3.93 0 0 20.78 0 20.78 -3.82 0 c-2.92 0 -4.27 -0.67 -5.95 -3.26 -1.12 -1.68 -8.09 -11.01 -15.50 -20.78 -10.33 -13.48 -14.04 -17.52 -15.95 -17.52 l-2.58 0 0 31.45 0 31.45 3.93 0 3.93 0 0 -20.78z m170.70 17.41 l0 -3.37 -16.28 0 -16.28 0 -0.22 -27.74 -0.34 -27.85 -3.59 -0.34 -3.71 -0.34 0 31.45 0 31.56 20.21 0 20.21 0 0 -3.37z m101.07 -10.67 l0 -14.04 10.22 -15.95 c12.13 -18.98 12.24 -19.20 8.87 -18.64 -1.80 0.22 -4.49 3.59 -10.11 12.69 -7.19 11.79 -7.75 12.35 -11.57 12.69 -4.04 0.34 -4.16 0.34 -12.02 -11.79 -4.27 -6.63 -7.97 -12.58 -8.20 -13.03 -0.11 -0.56 -1.35 -0.79 -2.70 -0.56 -2.13 0.34 -1.46 1.91 8.09 17.18 l10.56 16.85 0.11 14.38 0 14.26 3.37 0 3.37 0 0 -14.04z m-169.58 -172.39 c84.79 -12.47 162.17 -66.26 202.26 -140.49 16.17 -30.21 25.38 -57.84 30.32 -91.98 2.02 -13.81 2.36 -19.65 1.80 -38.18 -1.01 -38.52 -9.21 -71.43 -26.84 -106.80 -41.55 -83.89 -120.39 -139.71 -214.61 -152.06 -67.94 -8.76 -144.31 13.59 -200.13 58.62 -46.04 37.17 -79.17 89.28 -93.77 147.46 -3.03 11.68 -6.74 36.72 -6.74 44.70 l0 5.84 -121.63 0 -121.63 0 -5.62 2.81 c-13.70 6.85 -14.04 21.56 -0.45 28.41 l4.94 2.47 96.92 0 96.92 0 0 7.08 c0 10.56 -4.04 31 -9.10 46.27 -24.59 73.67 -87.15 127.24 -165.54 141.50 -15.83 2.92 -50.65 3.48 -69.07 1.12 -76.37 -9.66 -139.37 -54.36 -172.39 -122.41 -17.29 -35.38 -24.59 -73.78 -21.90 -113.76 1.24 -18.08 2.13 -24.59 6.18 -40.77 17.97 -71.54 68.39 -130.05 134.43 -155.99 14.60 -5.84 32.91 -11.01 48.07 -13.70 5.62 -1.01 18.19 -1.46 38.18 -1.46 28.08 0.11 30.55 0.22 44.14 3.14 40.65 8.65 75.69 26.50 106.35 54.02 9.55 8.54 12.13 9.88 15.72 7.97 3.71 -1.91 10.44 -9.32 12.92 -14.04 2.58 -5.05 0.79 -8.87 -8.20 -17.63 -33.58 -32.68 -82.77 -56.38 -135.55 -65.02 -17.29 -2.92 -54.69 -2.92 -71.88 -0.11 -28.30 4.72 -49.64 11.34 -74.12 23.13 -28.53 13.70 -48.96 28.19 -71.31 50.65 -61.99 61.88 -90.41 150.83 -74.01 231.35 14.04 69.29 54.13 128.93 112.75 167.78 28.86 19.20 67.38 33.92 103.32 39.42 16.17 2.58 45.82 3.37 60.08 1.80 75.58 -8.76 143.75 -49.98 184.18 -111.29 17.74 -27.07 30.55 -59.41 35.71 -90.41 l2.13 -12.35 11.01 0 11.12 0 1.46 8.98 c5.28 31.33 18.19 64.13 35.94 91.53 10.89 16.73 19.54 27.18 35.04 42.79 42.34 42.23 94.56 69.18 153.41 79.06 25.38 4.27 52.67 4.49 79.17 0.56z"/><path d="M238.65 919.33 c-7.86 -3.48 -11.79 -11.34 -11.79 -23.36 0 -9.66 2.36 -15.83 7.75 -20.33 4.72 -3.93 7.19 -4.49 18.42 -4.04 8.09 0.45 9.88 0.90 13.36 3.48 6.18 4.72 8.20 10 8.20 21.11 0 8.42 -0.34 10.22 -3.14 14.94 -4.38 7.41 -9.43 9.77 -20.66 9.77 -4.83 -0.11 -10.22 -0.79 -12.13 -1.57z"/><path d="M635.08 919.33 c-7.86 -3.48 -11.79 -11.34 -11.79 -23.36 0 -9.66 2.36 -15.83 7.75 -20.33 4.72 -3.93 7.19 -4.49 18.31 -4.04 11.57 0.56 15.61 3.03 19.77 12.02 2.36 5.28 2.70 7.19 2.25 14.94 -0.67 10.44 -3.93 16.51 -11.01 20.10 -5.28 2.70 -19.88 3.03 -25.27 0.67z"/><path d="M715.72 681.46 c-57.05 -32.12 -96.92 -82.99 -112.64 -144.09 -5.28 -20.33 -7.08 -39.31 -6.40 -64.58 0.56 -22.57 2.13 -33.80 6.96 -53.01 19.20 -75.02 76.70 -137.69 149.48 -162.95 20.44 -7.08 46.61 -11.46 76.25 -12.58 68.62 -2.70 132.63 22.80 180.25 71.99 36.84 37.96 58.06 83.22 64.13 136.34 2.02 18.31 0.79 49.75 -2.92 69.07 -8.31 44.25 -31.45 87.93 -61.66 116.46 -8.20 7.75 -10.11 7.97 -24.93 3.71 -21 -6.06 -72.32 -15.83 -143.86 -27.40 -32.46 -5.28 -42 -7.86 -46.72 -12.58 -3.03 -3.03 -3.26 -3.82 -2.70 -9.21 0.90 -9.66 5.50 -12.24 38.41 -21.67 14.71 -4.27 16.17 -4.83 11.57 -4.83 l-5.39 -0.11 0 -62.78 0 -62.89 24.48 -12.80 c13.36 -7.19 30.55 -16.17 37.96 -20.10 l13.70 -7.08 -4.72 -3.37 c-2.47 -1.80 -19.77 -14.60 -38.30 -28.41 -28.41 -21.23 -33.80 -25.61 -34.59 -28.64 -1.68 -6.51 -6.29 -9.43 -9.55 -6.18 -1.01 1.01 -1.35 28.75 -1.35 117.81 l0 116.35 -6.40 0.79 c-12.13 1.35 -44.58 8.42 -58.17 12.47 -21.34 6.51 -34.59 14.60 -31 18.98 0.67 0.79 4.60 3.03 8.76 4.94 7.41 3.37 16.85 5.95 67.72 18.08 35.38 8.42 40.43 11.46 40.43 23.58 0 9.32 -2.47 12.58 -13.70 17.97 -16.96 8.20 -72.66 22.12 -93.55 23.36 l-8.98 0.56 -12.58 -7.19z"/></g><g fill="#fffffe"><path d="M242.47 930.67 c-17.07 -4.83 -26.39 -17.29 -26.17 -35.04 0.22 -17.41 8.87 -28.86 25.72 -33.80 19.20 -5.50 39.08 7.08 43.35 27.51 5.05 24.59 -19.20 47.95 -42.90 41.33z m18.08 -15.39 c12.92 -6.63 14.38 -27.74 2.58 -36.72 -4.04 -3.14 -13.14 -4.72 -18.75 -3.26 -10.56 2.70 -17.18 18.31 -12.47 29.65 4.83 11.34 17.52 15.95 28.64 10.33z"/><path d="M638.90 930.67 c-11.46 -3.26 -19.99 -10.67 -24.26 -21.11 -2.92 -7.19 -2.81 -21.23 0.45 -28.08 9.88 -21.79 37.62 -27.51 56.15 -11.79 2.02 1.68 5.28 6.40 7.30 10.56 3.14 6.40 3.71 8.54 3.71 15.95 -0.11 10 -3.37 18.19 -10.11 25.16 -8.31 8.31 -22.46 12.35 -33.24 9.32z m18.08 -15.39 c5.84 -2.92 10 -9.32 10.89 -16.51 0.79 -7.19 -3.14 -16.62 -8.65 -20.55 -3.93 -2.81 -13.14 -4.27 -18.42 -2.92 -10.56 2.70 -17.18 18.31 -12.47 29.65 4.83 11.34 17.52 15.95 28.64 10.33z"/><path d="M100.40 929.77 c-6.29 -1.80 -14.38 -8.20 -18.08 -14.49 -6.96 -11.46 -7.41 -23.02 -1.35 -35.60 5.73 -12.02 16.96 -18.75 31.33 -18.75 8.76 0 17.29 2.81 23.47 7.97 l2.70 2.25 -3.71 4.60 c-2.02 2.58 -4.27 4.72 -4.83 4.72 -0.56 0 -2.58 -1.12 -4.49 -2.47 -5.17 -3.71 -18.87 -4.27 -24.03 -1.01 -14.15 8.87 -13.25 31.78 1.46 38.86 4.72 2.25 14.71 2.58 19.54 0.56 3.14 -1.24 3.37 -1.80 3.37 -6.85 l0 -5.50 -7.30 0 -7.41 0 0.34 -6.40 0.34 -6.51 14.04 0 14.04 0 0.34 14.82 0.34 14.82 -3.93 2.92 c-6.51 4.94 -14.26 7.30 -24.03 7.19 -4.72 0 -10.22 -0.56 -12.13 -1.12z"/><path d="M362.74 896.19 l0 -34.81 7.30 0 7.30 0 0 28.08 0 28.08 16.85 0 16.85 0 0 6.74 0 6.74 -24.15 0 -24.15 0 0 -34.81z"/><path d="M488.75 896.53 l0.34 -34.59 24.48 -0.34 24.37 -0.22 0 6.74 0 6.74 -17.41 0 -17.41 0 0 6.74 0 6.74 15.16 0 15.27 0 -0.34 7.08 -0.34 6.96 -14.82 0.34 -14.94 0.34 0 13.93 0 14.04 -7.30 0 -7.30 0 0.22 -34.48z"/><path d="M759.18 896.19 l0 -34.81 5.95 0 5.84 0 14.38 18.87 c7.86 10.33 15.05 19.77 15.95 21 1.46 2.02 1.57 0 1.68 -18.75 l0 -21.11 7.30 0 7.30 0 0 34.81 0 34.81 -5.28 0 -5.39 0 -16.28 -20.89 -16.28 -21 -0.34 21 -0.22 20.89 -7.30 0 -7.30 0 0 -34.81z"/><path d="M897.31 896.19 l0 -34.93 7.08 0.34 6.96 0.34 0.34 27.85 0.22 27.74 16.28 0 16.28 0 0 6.74 0 6.74 -23.58 0 -23.58 0 0 -34.81z"/><path d="M1032.08 916.74 l0 -14.15 -11.79 -18.87 c-6.51 -10.44 -12.13 -19.65 -12.47 -20.66 -0.56 -1.46 0.56 -1.68 6.96 -1.68 l7.75 0.11 7.86 12.58 c4.38 6.96 8.42 12.47 8.98 12.47 0.56 -0.11 4.38 -5.62 8.54 -12.35 l7.52 -12.24 7.97 -0.34 c4.38 -0.22 7.97 -0.11 7.97 0.22 0 0.34 -5.84 9.77 -12.92 20.89 l-12.92 20.33 0 13.93 0 14.04 -6.74 0 -6.74 0 0 -14.26z"/><path d="M812.52 746.83 c-66.60 -5.62 -128.25 -34.37 -175.87 -81.87 -15.50 -15.61 -24.15 -26.05 -35.04 -42.79 -17.74 -27.40 -30.66 -60.20 -35.94 -91.53 l-1.46 -8.98 -7.75 0 -7.64 0 -2.13 12.35 c-7.97 47.95 -31.78 93.55 -67.16 128.59 -41.33 40.99 -94.34 66.37 -152.73 73.11 -14.71 1.68 -51.21 0.67 -66.82 -1.68 -91.53 -14.49 -167.90 -75.13 -201.92 -160.15 -13.14 -32.91 -18.75 -61.88 -18.75 -96.58 0 -29.76 4.04 -54.58 13.36 -83.11 13.25 -40.09 35.15 -75.47 65.25 -105.57 22.35 -22.46 42.79 -36.95 71.31 -50.65 24.48 -11.79 45.82 -18.42 74.12 -23.13 17.52 -2.92 61.09 -2.81 78.61 0 44.36 7.41 83.89 24.03 116.24 48.85 31.89 24.48 35.71 33.13 21.67 48.63 -9.77 10.89 -15.72 10.44 -29.54 -1.91 -30.66 -27.51 -65.81 -45.37 -106.35 -54.02 -13.25 -2.81 -16.51 -3.03 -40.77 -3.14 -28.30 0 -34.14 0.67 -55.93 6.18 -85.24 21.90 -149.25 92.76 -165.31 182.94 -2.25 12.58 -3.14 34.93 -2.13 49.53 7.08 94.45 73.22 173.74 164.41 197.09 29.54 7.52 65.47 9.32 92.09 4.49 78.16 -14.04 140.94 -67.83 165.54 -141.50 4.38 -13.14 9.10 -35.38 9.10 -42.90 l0 -3.71 -96.81 0 c-91.87 0 -97.14 -0.11 -101.52 -2.13 -5.50 -2.47 -8.98 -6.74 -10.67 -12.80 -2.47 -9.32 1.68 -18.19 10.67 -22.69 l5.62 -2.81 121.63 0 121.63 0 0 -5.84 c0 -7.97 3.71 -33.02 6.74 -44.70 12.02 -47.95 35.49 -90.18 69.52 -125.11 44.25 -45.26 99.17 -72.55 163.29 -80.97 17.29 -2.25 50.54 -2.25 67.83 0 122.75 16.06 216.86 105.23 239.10 226.86 1.24 6.51 2.02 18.98 2.36 35.38 0.56 21.90 0.22 27.63 -1.80 41.55 -3.71 25.27 -9.43 46.16 -18.64 67.94 -37.29 87.49 -119.49 150.60 -214.50 164.64 -17.07 2.47 -46.83 3.48 -62.89 2.13z m-49.19 -66.93 c41.10 -8.42 70.86 -18.87 75.58 -26.62 4.49 -7.30 1.57 -13.70 -8.31 -18.31 -3.14 -1.46 -16.62 -5.28 -29.87 -8.42 -52.45 -12.58 -60.31 -14.71 -68.17 -18.42 -10.11 -4.72 -12.02 -7.75 -8.76 -13.81 4.60 -8.31 27.40 -17.07 64.01 -24.37 10.56 -2.13 22.01 -4.16 25.61 -4.60 l6.40 -0.79 0 -116.35 c0 -89.06 0.34 -116.80 1.35 -117.81 0.79 -0.79 3.71 -1.35 6.51 -1.35 5.95 0 8.20 1.80 9.77 7.52 0.79 3.03 6.18 7.41 34.59 28.64 18.53 13.81 36.39 27.07 39.64 29.42 3.71 2.70 5.84 5.05 5.62 6.18 -0.22 1.01 -6.40 4.94 -14.38 9.21 -7.75 4.04 -25.27 13.25 -38.97 20.55 l-25.04 13.14 0 59.52 0 59.41 11.23 0 c10.33 0 11.23 0.22 11.23 2.13 0 1.68 -1.35 2.47 -5.84 3.48 -11.23 2.70 -37.40 10.22 -45.48 13.03 -8.54 3.14 -14.38 7.30 -15.50 11.46 -1.12 3.93 4.38 8.54 13.36 11.34 4.16 1.24 20.33 4.38 35.83 6.96 71.88 11.57 122.30 21.23 144.20 27.51 l10.33 2.92 5.05 -4.27 c7.41 -6.29 23.92 -26.28 32.12 -38.63 36.16 -55.14 45.60 -125.78 25.04 -189.12 -18.31 -56.71 -58.62 -105 -111.52 -133.53 -51.32 -27.74 -106.91 -34.93 -170.03 -22.01 -49.19 10.11 -99.95 43.69 -132.74 87.71 -29.09 39.08 -44.47 82.88 -46.16 131.17 -1.35 38.30 6.51 73.33 23.92 107.48 20.78 40.88 53.46 74.46 95.12 97.82 14.82 8.31 12.80 8.31 44.25 1.80z"/></g></svg>