<?xml version="1.0" encoding="UTF-8"?>
<svg version="1.1" xmlns="http://www.w3.org/2000/svg" width="120" height="120">
<path d="M0 0 C0.78375 0.165 1.5675 0.33 2.375 0.5 C4.88208039 1.0623707 4.88208039 1.0623707 7 1 C8.65 1.33 10.3 1.66 12 2 C11.34 5.63 10.68 9.26 10 13 C6 14 6 14 4 13 C1.90178785 13.39938767 1.90178785 13.39938767 0 14 C-0.66 13.01 -1.32 12.02 -2 11 C-1.67 10.34 -1.34 9.68 -1 9 C-0.77532169 7.46331135 -0.59203195 5.92031946 -0.4375 4.375 C-0.35371094 3.55773438 -0.26992187 2.74046875 -0.18359375 1.8984375 C-0.12300781 1.27195313 -0.06242187 0.64546875 0 0 Z M6 4 C7 7 7 7 7 7 Z M3 7 C4 10 4 10 4 10 Z " fill="#9D2700" transform="translate(76,59)"/>
<path d="M0 0 C2.5625 0.3125 2.5625 0.3125 4.375 1.3125 C6.34837049 4.63607135 5.86562838 7.49308245 5.5625 11.3125 C3.5625 13.3125 3.5625 13.3125 0.625 13.6875 C-2.4375 13.3125 -2.4375 13.3125 -4.375 11.75 C-5.88390049 8.28840475 -5.3076627 5.92702199 -4.4375 2.3125 C-2.4375 0.3125 -2.4375 0.3125 0 0 Z M-1.4375 4.3125 C-0.4375 7.3125 -0.4375 7.3125 -0.4375 7.3125 Z M0.5625 4.3125 C0.2325 6.2925 -0.0975 8.2725 -0.4375 10.3125 C0.5525 10.8075 0.5525 10.8075 1.5625 11.3125 C1.5625 9.0025 1.5625 6.6925 1.5625 4.3125 C1.2325 4.3125 0.9025 4.3125 0.5625 4.3125 Z " fill="#9B2700" transform="translate(24.4375,41.6875)"/>
<path d="M0 0 C2.4375 0.5 2.4375 0.5 4.3125 1.5625 C6.13773223 4.70595551 5.29096115 7.08615541 4.4375 10.5 C3.3125 12.5 3.3125 12.5 1.4375 13.5 C-5.00694444 13.05555556 -5.00694444 13.05555556 -6.5625 11.5 C-6.9890405 7.74644356 -6.80720606 5.91690662 -4.875 2.625 C-2.5625 0.5 -2.5625 0.5 0 0 Z M-0.5625 3.5 C-2.93230013 6.45377498 -2.93230013 6.45377498 -2.5625 10.5 C-1.5725 10.17 -0.5825 9.84 0.4375 9.5 C0.7675 7.52 1.0975 5.54 1.4375 3.5 C0.7775 3.5 0.1175 3.5 -0.5625 3.5 Z " fill="#9D2800" transform="translate(66.5625,54.5)"/>
<path d="M0 0 C0.66 0 1.32 0 2 0 C2.391875 0.94875 2.78375 1.8975 3.1875 2.875 C5.19793856 6.34127338 6.22699642 6.9802693 10 8 C9.67 8.66 9.34 9.32 9 10 C8.195625 10.268125 7.39125 10.53625 6.5625 10.8125 C3.76670768 11.78464531 3.76670768 11.78464531 2.6875 14.625 C2.460625 15.40875 2.23375 16.1925 2 17 C1.34 17 0.68 17 0 17 C-0.226875 16.21625 -0.45375 15.4325 -0.6875 14.625 C-1.78125 11.78125 -1.78125 11.78125 -4.625 10.6875 C-5.40875 10.460625 -6.1925 10.23375 -7 10 C-6.67 9.01 -6.34 8.02 -6 7 C-5.360625 6.71125 -4.72125 6.4225 -4.0625 6.125 C-1.28319146 4.60901352 -0.92884019 2.94132727 0 0 Z " fill="#B77A3E" transform="translate(87,35)"/>
<path d="M0 0 C1.1446875 0.3403125 1.1446875 0.3403125 2.3125 0.6875 C2.6425 2.0075 2.9725 3.3275 3.3125 4.6875 C3.9725 4.6875 4.6325 4.6875 5.3125 4.6875 C6 6.4375 6 6.4375 6.3125 8.6875 C5.1875 10.9375 5.1875 10.9375 3.3125 12.6875 C0.875 13.25 0.875 13.25 -1.6875 12.6875 C-4.28808434 10.22748778 -5.53303141 8.61431156 -6.125 5.0625 C-5.6875 2.6875 -5.6875 2.6875 -4.5 0.8125 C-2.6875 -0.3125 -2.6875 -0.3125 0 0 Z M-1.6875 2.6875 C-1.3575 4.0075 -1.0275 5.3275 -0.6875 6.6875 C-0.3575 6.0275 -0.0275 5.3675 0.3125 4.6875 C-0.3475 4.0275 -1.0075 3.3675 -1.6875 2.6875 Z " fill="#9B2800" transform="translate(10.6875,46.3125)"/>
<path d="M0 0 C5.53846154 0.61538462 5.53846154 0.61538462 7.875 2.5625 C8.431875 3.2740625 8.431875 3.2740625 9 4 C7.25 8.875 7.25 8.875 5 10 C4.360625 10.33 3.72125 10.66 3.0625 11 C1 12 1 12 -2 13 C-2.99 12.34 -3.98 11.68 -5 11 C-4.731875 10.484375 -4.46375 9.96875 -4.1875 9.4375 C-2.67650593 6.33598585 -1.34427274 3.17737194 0 0 Z M3 3 C3 3.66 3 4.32 3 5 C3.66 4.67 4.32 4.34 5 4 C4.34 3.67 3.68 3.34 3 3 Z " fill="#9D2800" transform="translate(50,46)"/>
<path d="M0 0 C1.32 0 2.64 0 4 0 C3.85691406 0.92232422 3.85691406 0.92232422 3.7109375 1.86328125 C3.54464844 3.07564453 3.54464844 3.07564453 3.375 4.3125 C3.25898437 5.11300781 3.14296875 5.91351563 3.0234375 6.73828125 C2.78466593 9.28723215 2.78466593 9.28723215 5 12 C4.34 12.66 3.68 13.32 3 14 C2.01 14 1.02 14 0 14 C-0.3403125 12.824375 -0.3403125 12.824375 -0.6875 11.625 C-2.32825559 8.34348882 -3.62035159 8.12654947 -7 7 C-7.33 6.34 -7.66 5.68 -8 5 C-7.67 4.34 -7.34 3.68 -7 3 C-5.68 3 -4.36 3 -3 3 C-3 3.66 -3 4.32 -3 5 C-2.34 5 -1.68 5 -1 5 C-0.67 3.35 -0.34 1.7 0 0 Z " fill="#9E2800" transform="translate(110,54)"/>
<path d="M0 0 C1.65 0 3.3 0 5 0 C5 3.3 5 6.6 5 10 C6.65 9.34 8.3 8.68 10 8 C10 9.32 10 10.64 10 12 C7.04335481 13.4783226 4.25770263 13.06032783 1 13 C0.67 8.71 0.34 4.42 0 0 Z " fill="#9D2800" transform="translate(91,60)"/>
<path d="M0 0 C1.32 0 2.64 0 4 0 C3.67 3.3 3.34 6.6 3 10 C4.65 10.33 6.3 10.66 8 11 C7.67 11.99 7.34 12.98 7 14 C4.03 13.67 1.06 13.34 -2 13 C-1.85966889 11.02043559 -1.7125877 9.04134859 -1.5625 7.0625 C-1.48128906 5.96035156 -1.40007813 4.85820313 -1.31640625 3.72265625 C-1 1 -1 1 0 0 Z " fill="#992800" transform="translate(36,42)"/>
<path d="M0 0 C0.66 0 1.32 0 2 0 C2.391875 0.94875 2.78375 1.8975 3.1875 2.875 C5.19793856 6.34127338 6.22699642 6.9802693 10 8 C9.67 8.66 9.34 9.32 9 10 C7.35 10 5.7 10 4 10 C3.34 8.02 2.68 6.04 2 4 C1.34 4 0.68 4 0 4 C-1.25664978 6.90600261 -2 8.79604584 -2 12 C-4.475 11.01 -4.475 11.01 -7 10 C-6.67 9.01 -6.34 8.02 -6 7 C-5.360625 6.71125 -4.72125 6.4225 -4.0625 6.125 C-1.28319146 4.60901352 -0.92884019 2.94132727 0 0 Z " fill="#E36235" transform="translate(87,35)"/>
<path d="M0 0 C3.465 1.485 3.465 1.485 7 3 C6.34 3.66 5.68 4.32 5 5 C4.484375 5.53625 3.96875 6.0725 3.4375 6.625 C2 8 2 8 1 8 C1 6.35 1 4.7 1 3 C0.34 2.67 -0.32 2.34 -1 2 C-0.67 1.34 -0.34 0.68 0 0 Z " fill="#8B2400" transform="translate(51,50)"/>
<path d="M0 0 C1.32 0 2.64 0 4 0 C4 1.98 4 3.96 4 6 C2.68 6 1.36 6 0 6 C0 4.02 0 2.04 0 0 Z " fill="#972500" transform="translate(12,68)"/>
<path d="M0 0 C1.32 0 2.64 0 4 0 C4.33 0.99 4.66 1.98 5 3 C4.01 4.485 4.01 4.485 3 6 C2.01 5.67 1.02 5.34 0 5 C0 3.35 0 1.7 0 0 Z " fill="#9B2700" transform="translate(17,68)"/>
<path d="M0 0 C0.33 0.99 0.66 1.98 1 3 C0.01 4.485 0.01 4.485 -1 6 C-1 6.99 -1 7.98 -1 9 C-3.475 8.01 -3.475 8.01 -6 7 C-5 4 -5 4 -3 2.9375 C-2.34 2.628125 -1.68 2.31875 -1 2 C-0.67 1.34 -0.34 0.68 0 0 Z " fill="#EB6D3B" transform="translate(86,38)"/>
<path d="M0 0 C0.99 0 1.98 0 3 0 C3.33 1.65 3.66 3.3 4 5 C2.35 5.33 0.7 5.66 -1 6 C-1.042721 4.33388095 -1.04063832 2.66617115 -1 1 C-0.67 0.67 -0.34 0.34 0 0 Z " fill="#982300" transform="translate(31,68)"/>
<path d="M0 0 C1.98 0.495 1.98 0.495 4 1 C4 2.65 4 4.3 4 6 C2.35 6 0.7 6 -1 6 C-0.67 4.02 -0.34 2.04 0 0 Z " fill="#902400" transform="translate(41,68)"/>
<path d="M0 0 C0.99 0 1.98 0 3 0 C3 1.65 3 3.3 3 5 C1.68 5 0.36 5 -1 5 C-0.67 3.35 -0.34 1.7 0 0 Z " fill="#992800" transform="translate(47,68)"/>
<path d="M0 0 C1.98 0.495 1.98 0.495 4 1 C4 2.32 4 3.64 4 5 C3.01 5.33 2.02 5.66 1 6 C-0.0625 4.125 -0.0625 4.125 -1 2 C-0.67 1.34 -0.34 0.68 0 0 Z M1 2 C2 4 2 4 2 4 Z " fill="#972500" transform="translate(36,68)"/>
<path d="M0 0 C2.475 0.495 2.475 0.495 5 1 C4.67 2.32 4.34 3.64 4 5 C3.01 5 2.02 5 1 5 C0.67 3.35 0.34 1.7 0 0 Z " fill="#931F00" transform="translate(22,68)"/>
<path d="M0 0 C0.33 0 0.66 0 1 0 C1.66 2.97 2.32 5.94 3 9 C2.01 9.66 1.02 10.32 0 11 C-1.28571429 3.57142857 -1.28571429 3.57142857 0 0 Z " fill="#BE1200" transform="translate(17,46)"/>
<path d="M0 0 C0.99 0.495 0.99 0.495 2 1 C2 3.97 2 6.94 2 10 C1.67 10 1.34 10 1 10 C0.67 6.7 0.34 3.4 0 0 Z " fill="#B12600" transform="translate(73,58)"/>
<path d="M0 0 C0.33 0 0.66 0 1 0 C1.33 3.3 1.66 6.6 2 10 C0 8 0 8 -0.1953125 6.0546875 C-0.13020833 4.03645833 -0.06510417 2.01822917 0 0 Z " fill="#991C00" transform="translate(31,45)"/>
<path d="M0 0 C0.33 0 0.66 0 1 0 C1 2.97 1 5.94 1 9 C0.67 9 0.34 9 0 9 C0 6.03 0 3.06 0 0 Z " fill="#A01C00" transform="translate(90,64)"/>
<path d="M0 0 C0.33 0 0.66 0 1 0 C1 1.98 1 3.96 1 6 C-0.0625 4.125 -0.0625 4.125 -1 2 C-0.67 1.34 -0.34 0.68 0 0 Z " fill="#701200" transform="translate(58,60)"/>
<path d="M0 0 C1.98 0 3.96 0 6 0 C6.33 0.66 6.66 1.32 7 2 C4.69 1.67 2.38 1.34 0 1 C0 0.67 0 0.34 0 0 Z " fill="#8B1C00" transform="translate(22,40)"/>
<path d="M0 0 C2.31 0 4.62 0 7 0 C7 0.33 7 0.66 7 1 C4.69 1 2.38 1 0 1 C0 0.67 0 0.34 0 0 Z " fill="#B12700" transform="translate(92,74)"/>
<path d="M0 0 C0.33 0 0.66 0 1 0 C1 2.31 1 4.62 1 7 C0.67 7 0.34 7 0 7 C0 4.69 0 2.38 0 0 Z " fill="#8F3900" transform="translate(87,65)"/>
<path d="M0 0 C0.33 0 0.66 0 1 0 C1 1.65 1 3.3 1 5 C0.34 4.34 -0.32 3.68 -1 3 C-0.67 2.01 -0.34 1.02 0 0 Z " fill="#360000" transform="translate(10,68)"/>
<path d="M0 0 C1.32 0 2.64 0 4 0 C3.67 1.32 3.34 2.64 3 4 C3 3.01 3 2.02 3 1 C2.01 0.67 1.02 0.34 0 0 Z " fill="#8F1000" transform="translate(104,63)"/>
<path d="M0 0 C0.66 0 1.32 0 2 0 C1.67 1.65 1.34 3.3 1 5 C0 1.125 0 1.125 0 0 Z " fill="#921200" transform="translate(88,60)"/>
<path d="M0 0 C1.32 1.32 2.64 2.64 4 4 C2.68 3.34 1.36 2.68 0 2 C0 1.34 0 0.68 0 0 Z " fill="#7C1500" transform="translate(5,56)"/>
<path d="M0 0 C0 0.99 0 1.98 0 3 C-1.32 2.34 -2.64 1.68 -4 1 C-2.68 0.67 -1.36 0.34 0 0 Z " fill="#B11D00" transform="translate(107,54)"/>
<path d="M0 0 C0.33 0 0.66 0 1 0 C1 1.65 1 3.3 1 5 C0.01 5.495 0.01 5.495 -1 6 C-0.67 4.02 -0.34 2.04 0 0 Z " fill="#901300" transform="translate(47,47)"/>
<path d="M0 0 C0.12375 0.639375 0.2475 1.27875 0.375 1.9375 C0.58125 2.618125 0.7875 3.29875 1 4 C1.66 4.33 2.32 4.66 3 5 C2.01 5 1.02 5 0 5 C0 3.35 0 1.7 0 0 Z " fill="#9E2500" transform="translate(40,46)"/>
<path d="M0 0 C1.98 0 3.96 0 6 0 C6 0.33 6 0.66 6 1 C4.02 1 2.04 1 0 1 C0 0.67 0 0.34 0 0 Z " fill="#9F2300" transform="translate(62,69)"/>
<path d="M0 0 C0.99 0.66 1.98 1.32 3 2 C1.35 2 -0.3 2 -2 2 C-1.34 1.34 -0.68 0.68 0 0 Z " fill="#A31300" transform="translate(93,57)"/>
<path d="M0 0 C1.98 0 3.96 0 6 0 C6 0.33 6 0.66 6 1 C4.02 1 2.04 1 0 1 C0 0.67 0 0.34 0 0 Z " fill="#641D00" transform="translate(37,57)"/>
<path d="M0 0 C0.99 0.66 1.98 1.32 3 2 C1.35 2 -0.3 2 -2 2 C-1.34 1.34 -0.68 0.68 0 0 Z " fill="#721300" transform="translate(37,39)"/>
<path d="M0 0 C1.32 0.99 2.64 1.98 4 3 C2.68 2.67 1.36 2.34 0 2 C0 1.34 0 0.68 0 0 Z " fill="#E64A35" transform="translate(91,38)"/>
<path d="M0 0 C0.33 0 0.66 0 1 0 C1 1.65 1 3.3 1 5 C0.67 5 0.34 5 0 5 C0 3.35 0 1.7 0 0 Z " fill="#990000" transform="translate(51,68)"/>
<path d="M0 0 C1.32 0.33 2.64 0.66 4 1 C3.01 1.33 2.02 1.66 1 2 C0.67 1.34 0.34 0.68 0 0 Z " fill="#C80A00" transform="translate(110,69)"/>
<path d="M0 0 C1.65 0 3.3 0 5 0 C5 0.33 5 0.66 5 1 C3.35 1 1.7 1 0 1 C0 0.67 0 0.34 0 0 Z " fill="#953000" transform="translate(9,60)"/>
<path d="M0 0 C1.98 0.99 1.98 0.99 4 2 C2.68 1.67 1.36 1.34 0 1 C0 0.67 0 0.34 0 0 Z " fill="#440C00" transform="translate(20,55)"/>
<path d="M0 0 C1.65 0 3.3 0 5 0 C5 0.33 5 0.66 5 1 C3.35 1 1.7 1 0 1 C0 0.67 0 0.34 0 0 Z " fill="#AB2300" transform="translate(64,53)"/>
<path d="M0 0 C0.33 0 0.66 0 1 0 C1 1.65 1 3.3 1 5 C0.67 5 0.34 5 0 5 C0 3.35 0 1.7 0 0 Z " fill="#D02E00" transform="translate(3,49)"/>
<path d="M0 0 C4 1 4 1 4 1 Z " fill="#CA0000" transform="translate(41,75)"/>
<path d="M0 0 C4 1 4 1 4 1 Z " fill="#940000" transform="translate(12,75)"/>
<path d="M0 0 C1 4 1 4 1 4 Z " fill="#6F1300" transform="translate(97,65)"/>
<path d="M0 0 C4 1 4 1 4 1 Z " fill="#972900" transform="translate(22,66)"/>
<path d="M0 0 C4 1 4 1 4 1 Z " fill="#B61900" transform="translate(12,66)"/>
<path d="M0 0 C4 1 4 1 4 1 Z " fill="#B41500" transform="translate(83,58)"/>
<path d="M0 0 C4 1 4 1 4 1 Z " fill="#B22600" transform="translate(76,57)"/>
<path d="M0 0 C0.99 0.33 1.98 0.66 3 1 C2.01 1 1.02 1 0 1 C0 0.67 0 0.34 0 0 Z " fill="#7F0000" transform="translate(111,51)"/>
<path d="M0 0 C1 4 1 4 1 4 Z " fill="#701700" transform="translate(33,47)"/>
<path d="M0 0 C0.99 0.33 1.98 0.66 3 1 C2.01 1 1.02 1 0 1 C0 0.67 0 0.34 0 0 Z " fill="#9A1000" transform="translate(55,45)"/>
<path d="M0 0 C4 1 4 1 4 1 Z " fill="#962C00" transform="translate(50,44)"/>
<path d="M0 0 C4 1 4 1 4 1 Z " fill="#923600" transform="translate(8,44)"/>
<path d="M0 0 C3 1 3 1 3 1 Z " fill="#8E0000" transform="translate(31,75)"/>
<path d="M0 0 C3 1 3 1 3 1 Z " fill="#B22600" transform="translate(47,66)"/>
<path d="M0 0 C3 1 3 1 3 1 Z " fill="#B22600" transform="translate(41,66)"/>
<path d="M0 0 C3 1 3 1 3 1 Z " fill="#B80E00" transform="translate(36,66)"/>
<path d="M0 0 C3 1 3 1 3 1 Z " fill="#8E0E00" transform="translate(31,66)"/>
<path d="M0 0 C3 1 3 1 3 1 Z " fill="#9D2600" transform="translate(17,66)"/>
<path d="" fill="#902200" transform="translate(0,0)"/>
<path d="" fill="#5D2600" transform="translate(0,0)"/>
<path d="" fill="#9C3200" transform="translate(0,0)"/>
<path d="M0 0 C3 1 3 1 3 1 Z " fill="#951500" transform="translate(34,56)"/>
<path d="M0 0 C3 1 3 1 3 1 Z " fill="#B81500" transform="translate(25,56)"/>
<path d="" fill="#A31500" transform="translate(0,0)"/>
<path d="M0 0 C0.66 0 1.32 0 2 0 C1.67 0.66 1.34 1.32 1 2 C0.67 1.34 0.34 0.68 0 0 Z " fill="#6A1500" transform="translate(69,54)"/>
<path d="" fill="#E94015" transform="translate(0,0)"/>
<path d="" fill="#E99515" transform="translate(0,0)"/>
<path d="M0 0 C0.99 0.495 0.99 0.495 2 1 C1.01 1.495 1.01 1.495 0 2 C0 1.34 0 0.68 0 0 Z " fill="#E26926" transform="translate(91,47)"/>
<path d="" fill="#B82300" transform="translate(0,0)"/>
<path d="M0 0 C0.66 0 1.32 0 2 0 C1.67 0.66 1.34 1.32 1 2 C0.67 1.34 0.34 0.68 0 0 Z " fill="#FF5547" transform="translate(83,47)"/>
<path d="" fill="#BB2200" transform="translate(0,0)"/>
<path d="M0 0 C3 1 3 1 3 1 Z " fill="#EE6E4C" transform="translate(81,40)"/>
<path d="" fill="#EE4C26" transform="translate(0,0)"/>
<path d="M0 0 C2 1 2 1 2 1 Z " fill="#BF0000" transform="translate(47,75)"/>
<path d="M0 0 C2 1 2 1 2 1 Z " fill="#550000" transform="translate(37,75)"/>
<path d="M0 0 C2 1 2 1 2 1 Z " fill="#800000" transform="translate(18,75)"/>
<path d="M0 0 C2 1 2 1 2 1 Z " fill="#550000" transform="translate(81,74)"/>
<path d="M0 0 C2 1 2 1 2 1 Z " fill="#952000" transform="translate(99,73)"/>
<path d="M0 0 C2 1 2 1 2 1 Z " fill="#550000" transform="translate(78,73)"/>
<path d="" fill="#9F4000" transform="translate(0,0)"/>
<path d="" fill="#D42A00" transform="translate(0,0)"/>
<path d="" fill="#400000" transform="translate(0,0)"/>
<path d="M0 0 C2 1 2 1 2 1 Z " fill="#7F0000" transform="translate(39,67)"/>
<path d="M0 0 C2 1 2 1 2 1 Z " fill="#FF0000" transform="translate(34,67)"/>
<path d="M0 0 C2 1 2 1 2 1 Z " fill="#8C3900" transform="translate(99,66)"/>
<path d="" fill="#BF1500" transform="translate(0,0)"/>
<path d="" fill="#FF0000" transform="translate(0,0)"/>
<path d="" fill="#A42500" transform="translate(0,0)"/>
<path d="" fill="#950000" transform="translate(0,0)"/>
<path d="M0 0 C2 1 2 1 2 1 Z " fill="#BF0000" transform="translate(49,59)"/>
<path d="M0 0 C2 1 2 1 2 1 Z " fill="#952000" transform="translate(46,59)"/>
<path d="" fill="#8C1900" transform="translate(0,0)"/>
<path d="" fill="#800000" transform="translate(0,0)"/>
<path d="" fill="#954A00" transform="translate(0,0)"/>
<path d="M0 0 C2 1 2 1 2 1 Z " fill="#FF7F00" transform="translate(87,53)"/>
<path d="M0 0 C2 1 2 1 2 1 Z " fill="#4C1900" transform="translate(109,52)"/>
<path d="" fill="#7F0000" transform="translate(0,0)"/>
<path d="" fill="#BF2000" transform="translate(0,0)"/>
<path d="M0 0 C2 1 2 1 2 1 Z " fill="#CD5632" transform="translate(93,46)"/>
<path d="M0 0 C2 1 2 1 2 1 Z " fill="#ED613C" transform="translate(81,46)"/>
<path d="" fill="#952000" transform="translate(0,0)"/>
<path d="M0 0 C2 1 2 1 2 1 Z " fill="#D40000" transform="translate(6,45)"/>
<path d="" fill="#800000" transform="translate(0,0)"/>
<path d="" fill="#BF2000" transform="translate(0,0)"/>
<path d="" fill="#F12A1C" transform="translate(0,0)"/>
<path d="" fill="#FF5555" transform="translate(0,0)"/>
<path d="M0 0 C2 1 2 1 2 1 Z " fill="#FF0000" transform="translate(87,33)"/>
<path d="" fill="#800000" transform="translate(0,0)"/>
<path d="" fill="#000000" transform="translate(0,0)"/>
<path d="" fill="#800000" transform="translate(0,0)"/>
<path d="" fill="#AA0000" transform="translate(0,0)"/>
<path d="" fill="#800000" transform="translate(0,0)"/>
<path d="" fill="#FF0000" transform="translate(0,0)"/>
<path d="" fill="#800000" transform="translate(0,0)"/>
<path d="" fill="#AA0000" transform="translate(0,0)"/>
<path d="" fill="#AA0000" transform="translate(0,0)"/>
<path d="" fill="#FF0000" transform="translate(0,0)"/>
<path d="" fill="#804000" transform="translate(0,0)"/>
<path d="" fill="#FF0000" transform="translate(0,0)"/>
<path d="" fill="#000000" transform="translate(0,0)"/>
<path d="" fill="#800000" transform="translate(0,0)"/>
<path d="" fill="#FF0000" transform="translate(0,0)"/>
<path d="" fill="#AA0000" transform="translate(0,0)"/>
<path d="" fill="#000000" transform="translate(0,0)"/>
<path d="" fill="#FF0000" transform="translate(0,0)"/>
<path d="" fill="#800000" transform="translate(0,0)"/>
<path d="" fill="#800000" transform="translate(0,0)"/>
<path d="" fill="#AA0000" transform="translate(0,0)"/>
<path d="" fill="#FF0000" transform="translate(0,0)"/>
<path d="" fill="#FF0000" transform="translate(0,0)"/>
<path d="" fill="#FF0000" transform="translate(0,0)"/>
<path d="" fill="#FF0000" transform="translate(0,0)"/>
<path d="" fill="#804000" transform="translate(0,0)"/>
<path d="" fill="#AA0000" transform="translate(0,0)"/>
<path d="" fill="#800000" transform="translate(0,0)"/>
<path d="" fill="#800000" transform="translate(0,0)"/>
<path d="" fill="#AA0000" transform="translate(0,0)"/>
<path d="" fill="#993300" transform="translate(0,0)"/>
<path d="" fill="#804000" transform="translate(0,0)"/>
<path d="" fill="#FF0000" transform="translate(0,0)"/>
<path d="" fill="#FF0000" transform="translate(0,0)"/>
<path d="" fill="#FF0000" transform="translate(0,0)"/>
<path d="" fill="#800000" transform="translate(0,0)"/>
<path d="" fill="#800000" transform="translate(0,0)"/>
<path d="" fill="#FF0000" transform="translate(0,0)"/>
<path d="" fill="#993300" transform="translate(0,0)"/>
<path d="" fill="#AA5500" transform="translate(0,0)"/>
<path d="" fill="#AA0000" transform="translate(0,0)"/>
<path d="" fill="#804000" transform="translate(0,0)"/>
<path d="" fill="#FF0000" transform="translate(0,0)"/>
<path d="" fill="#800000" transform="translate(0,0)"/>
<path d="" fill="#800000" transform="translate(0,0)"/>
<path d="" fill="#000000" transform="translate(0,0)"/>
<path d="" fill="#800000" transform="translate(0,0)"/>
<path d="" fill="#000000" transform="translate(0,0)"/>
<path d="" fill="#800000" transform="translate(0,0)"/>
<path d="" fill="#800000" transform="translate(0,0)"/>
<path d="" fill="#800000" transform="translate(0,0)"/>
<path d="" fill="#804000" transform="translate(0,0)"/>
<path d="" fill="#000000" transform="translate(0,0)"/>
<path d="" fill="#FF0000" transform="translate(0,0)"/>
<path d="" fill="#FF0000" transform="translate(0,0)"/>
<path d="" fill="#800000" transform="translate(0,0)"/>
<path d="" fill="#800000" transform="translate(0,0)"/>
<path d="" fill="#993300" transform="translate(0,0)"/>
<path d="" fill="#993300" transform="translate(0,0)"/>
<path d="" fill="#AA0000" transform="translate(0,0)"/>
<path d="" fill="#800000" transform="translate(0,0)"/>
<path d="" fill="#800000" transform="translate(0,0)"/>
<path d="" fill="#800000" transform="translate(0,0)"/>
<path d="" fill="#804000" transform="translate(0,0)"/>
<path d="" fill="#AA5500" transform="translate(0,0)"/>
<path d="" fill="#804000" transform="translate(0,0)"/>
<path d="" fill="#FF0000" transform="translate(0,0)"/>
<path d="" fill="#FF0000" transform="translate(0,0)"/>
<path d="" fill="#804000" transform="translate(0,0)"/>
<path d="" fill="#BF4000" transform="translate(0,0)"/>
<path d="" fill="#993300" transform="translate(0,0)"/>
<path d="" fill="#804000" transform="translate(0,0)"/>
<path d="" fill="#FF0000" transform="translate(0,0)"/>
<path d="" fill="#000000" transform="translate(0,0)"/>
<path d="" fill="#AA2B00" transform="translate(0,0)"/>
<path d="" fill="#804000" transform="translate(0,0)"/>
<path d="" fill="#FF0000" transform="translate(0,0)"/>
<path d="" fill="#FF0000" transform="translate(0,0)"/>
<path d="" fill="#FF0000" transform="translate(0,0)"/>
<path d="" fill="#800000" transform="translate(0,0)"/>
<path d="" fill="#800000" transform="translate(0,0)"/>
<path d="" fill="#804000" transform="translate(0,0)"/>
<path d="" fill="#AA0000" transform="translate(0,0)"/>
<path d="" fill="#AA0000" transform="translate(0,0)"/>
<path d="" fill="#800000" transform="translate(0,0)"/>
<path d="" fill="#800000" transform="translate(0,0)"/>
<path d="" fill="#800000" transform="translate(0,0)"/>
<path d="" fill="#FF0000" transform="translate(0,0)"/>
<path d="" fill="#BF4000" transform="translate(0,0)"/>
<path d="" fill="#FF0000" transform="translate(0,0)"/>
<path d="" fill="#FF0000" transform="translate(0,0)"/>
<path d="" fill="#000000" transform="translate(0,0)"/>
<path d="" fill="#804000" transform="translate(0,0)"/>
<path d="" fill="#800000" transform="translate(0,0)"/>
<path d="" fill="#FF0000" transform="translate(0,0)"/>
<path d="" fill="#800000" transform="translate(0,0)"/>
<path d="" fill="#AA0000" transform="translate(0,0)"/>
<path d="" fill="#FF0000" transform="translate(0,0)"/>
<path d="" fill="#FF0000" transform="translate(0,0)"/>
<path d="" fill="#800000" transform="translate(0,0)"/>
<path d="" fill="#804000" transform="translate(0,0)"/>
<path d="" fill="#FF0000" transform="translate(0,0)"/>
<path d="" fill="#FF0000" transform="translate(0,0)"/>
</svg>
